<svg xmlns="http://www.w3.org/2000/svg" viewBox="0 0 320 400" role="img" aria-label="Ciudad de noche"><rect width="320" height="400" fill="#1F2240"/><circle cx="250" cy="70" r="26" fill="#FBF8F1"/><circle cx="240" cy="62" r="24" fill="#1F2240"/><g fill="#fff"><circle cx="50" cy="60" r="2"/><circle cx="120" cy="40" r="2"/><circle cx="180" cy="90" r="2"/><circle cx="90" cy="120" r="2"/><circle cx="290" cy="140" r="2"/></g><rect x="20" y="180" width="90" height="220" fill="#3B4488"/><rect x="120" y="140" width="80" height="260" fill="#4C57A9"/><rect x="210" y="210" width="80" height="190" fill="#3B4488"/><rect x="36" y="200" width="8" height="10" fill="#FFEC89"/><rect x="36" y="225" width="8" height="10" fill="#FFEC89"/><rect x="36" y="250" width="8" height="10" fill="#FFEC89"/><rect x="36" y="275" width="8" height="10" fill="#FFEC89"/><rect x="36" y="300" width="8" height="10" fill="#FFEC89"/><rect x="56" y="200" width="8" height="10" fill="#FFEC89"/><rect x="56" y="225" width="8" height="10" fill="#FFEC89"/><rect x="56" y="250" width="8" height="10" fill="#FFEC89"/><rect x="56" y="275" width="8" height="10" fill="#FFEC89"/><rect x="56" y="300" width="8" height="10" fill="#FFEC89"/><rect x="76" y="200" width="8" height="10" fill="#FFEC89"/><rect x="76" y="225" width="8" height="10" fill="#FFEC89"/><rect x="76" y="250" width="8" height="10" fill="#FFEC89"/><rect x="76" y="275" width="8" height="10" fill="#FFEC89"/><rect x="76" y="300" width="8" height="10" fill="#FFEC89"/><rect x="130" y="160" width="8" height="10" fill="#FFEC89" opacity=".8"/><rect x="130" y="190" width="8" height="10" fill="#FFEC89" opacity=".8"/><rect x="130" y="220" width="8" height="10" fill="#FFEC89" opacity=".8"/><rect x="130" y="250" width="8" height="10" fill="#FFEC89" opacity=".8"/><rect x="130" y="280" width="8" height="10" fill="#FFEC89" opacity=".8"/><rect x="152" y="160" width="8" height="10" fill="#FFEC89" opacity=".8"/><rect x="152" y="190" width="8" height="10" fill="#FFEC89" opacity=".8"/><rect x="152" y="220" width="8" height="10" fill="#FFEC89" opacity=".8"/><rect x="152" y="250" width="8" height="10" fill="#FFEC89" opacity=".8"/><rect x="152" y="280" width="8" height="10" fill="#FFEC89" opacity=".8"/><rect x="174" y="160" width="8" height="10" fill="#FFEC89" opacity=".8"/><rect x="174" y="190" width="8" height="10" fill="#FFEC89" opacity=".8"/><rect x="174" y="220" width="8" height="10" fill="#FFEC89" opacity=".8"/><rect x="174" y="250" width="8" height="10" fill="#FFEC89" opacity=".8"/><rect x="174" y="280" width="8" height="10" fill="#FFEC89" opacity=".8"/><rect x="236" y="230" width="8" height="10" fill="#FFAD33"/><rect x="236" y="260" width="8" height="10" fill="#FFAD33"/><rect x="236" y="290" width="8" height="10" fill="#FFAD33"/><rect x="236" y="320" width="8" height="10" fill="#FFAD33"/><rect x="256" y="230" width="8" height="10" fill="#FFAD33"/><rect x="256" y="260" width="8" height="10" fill="#FFAD33"/><rect x="256" y="290" width="8" height="10" fill="#FFAD33"/><rect x="256" y="320" width="8" height="10" fill="#FFAD33"/></svg>