<svg xmlns="http://www.w3.org/2000/svg" viewBox="0 0 64 64" role="img" aria-label="TikTok">
  <rect width="64" height="64" fill="#000"/>
  <g fill="none" stroke-width="5" stroke-linecap="round" stroke-linejoin="round">
    <path id="n" d="M35 16v23a7 7 0 1 1-7-7M35 16c1 5 5 9 11 9.5" stroke="#25F4EE" transform="translate(-1.6 -1.2)"/>
    <path d="M35 16v23a7 7 0 1 1-7-7M35 16c1 5 5 9 11 9.5" stroke="#FE2C55" transform="translate(1.6 1.2)"/>
    <path d="M35 16v23a7 7 0 1 1-7-7M35 16c1 5 5 9 11 9.5" stroke="#fff"/>
  </g>
</svg>
